<?xml version="1.0" encoding="UTF-8" standalone="no"?>
<svg width="25px" height="60px" viewBox="0 0 25 60" version="1.1" xmlns="http://www.w3.org/2000/svg" xmlns:xlink="http://www.w3.org/1999/xlink" xmlns:sketch="http://www.bohemiancoding.com/sketch/ns">
    <!-- Generator: Sketch 3.3.1 (12005) - http://www.bohemiancoding.com/sketch -->
    <title>7</title>
    <desc>Created with Sketch.</desc>
    <defs></defs>
    <g id="Page-1" stroke="none" stroke-width="1" fill="none" fill-rule="evenodd" sketch:type="MSPage">
        <g id="Artboard-1" sketch:type="MSArtboardGroup" transform="translate(-316.000000, -19.000000)">
            <g id="7" sketch:type="MSLayerGroup" transform="translate(316.000000, 19.000000)">
                <path d="M24.9901828,12 C24.7277309,5.32823338 19.2361032,0 12.5,0 C5.76389678,0 0.272269145,5.32823338 0.00981724276,12 L0,12 L0,49 L0.089074983,49 C0.830108367,55.19634 6.10407673,60 12.5,60 C18.8959233,60 24.1698916,55.19634 24.910925,49 L25,49 L25,12 L24.9901828,12 Z" id="Oval-5-Copy-6" fill="#CF9523" sketch:type="MSShapeGroup"></path>
                <path d="M24.9901828,12 C24.7277309,5.32823338 19.2361032,0 12.5,0 C5.76389678,0 0.272269145,5.32823338 0.00981724276,12 L0,12 L0,49 L0.089074983,49 C0.830108367,55.19634 6.10407673,60 12.5,60 C18.8959233,60 24.1698916,55.19634 24.910925,49 L25,49 L25,12 L24.9901828,12 Z" id="Oval-5-Copy-4" fill="#71716F" sketch:type="MSShapeGroup"></path>
                <rect id="Rectangle-5-Copy-12" fill-opacity="0.255208333" fill="#FFFFFF" sketch:type="MSShapeGroup" x="0" y="48" width="25" height="2"></rect>
            </g>
        </g>
    </g>
</svg>