<?xml version="1.0" encoding="UTF-8" standalone="no"?>
<svg width="25px" height="55px" viewBox="0 0 25 55" version="1.1" xmlns="http://www.w3.org/2000/svg" xmlns:xlink="http://www.w3.org/1999/xlink" xmlns:sketch="http://www.bohemiancoding.com/sketch/ns">
    <!-- Generator: Sketch 3.3.1 (12005) - http://www.bohemiancoding.com/sketch -->
    <title>13</title>
    <desc>Created with Sketch.</desc>
    <defs></defs>
    <g id="Page-1" stroke="none" stroke-width="1" fill="none" fill-rule="evenodd" sketch:type="MSPage">
        <g id="Artboard-1" sketch:type="MSArtboardGroup" transform="translate(-251.000000, -104.000000)">
            <g id="13" sketch:type="MSLayerGroup" transform="translate(251.000000, 104.000000)">
                <path d="M22.8202081,0.444995963 C24.1074883,2.32443759 24.8947239,4.57334962 24.9901828,7 L24.9901828,7 L25,7 L25,44 L24.910925,44 C24.1698916,50.19634 18.8959233,55 12.5,55 C6.10407673,55 0.830108367,50.19634 0.089074983,44 L0,44 L0,7 L0.00981724276,7 C0.105276069,4.57334962 0.89251165,2.32443759 2.17979193,0.444995963 C3.09188319,5.31471514 7.36556939,9 12.5,9 C17.6344306,9 21.9081168,5.31471514 22.8202081,0.444995963 Z" id="Oval-5-Copy-3" fill="#CF9523" sketch:type="MSShapeGroup"></path>
                <rect id="Rectangle-5-Copy-10" fill-opacity="0.255208333" fill="#FFFFFF" sketch:type="MSShapeGroup" x="0" y="43" width="25" height="2"></rect>
            </g>
        </g>
    </g>
</svg>